# AST/ASF file generated using VICON BodyLanguage
# -----------------------------------------------
:version 1.10
:name VICON
:units
  mass 1.0
  length 0.45
  angle deg
:documentation
   .ast/.asf automatically generated from VICON data using
   VICON BodyBuilder and BodyLanguage model FoxedUp or BRILLIANT.MOD
:root
   order TX TY TZ RX RY RZ
   axis XYZ
   position 0 0 0  
   orientation 0 0 0 
:bonedata
  begin
     id 1 
     name lhipjoint
     direction 0.523584 -0.783993 0.333487 
     length 2.44404 
     axis 0 0 0  XYZ
  end
  begin
     id 2 
     name lfemur
     direction 0.34202 -0.939693 0  
     length 7.29523  
     axis 0 0 20  XYZ
    dof rx ry rz
    limits (-160.0 20.0)
           (-70.0 70.0)
           (-60.0 70.0)
  end
  begin
     id 3 
     name ltibia
     direction 0.34215 -0.939645 0   
     length 7.81194   
     axis 0 0 20   XYZ
    dof rx
    limits (-10.0 170.0)
  end
  begin
     id 4 
     name lfoot
     direction 0.0941847 -0.25877 0.961336   
     length 2.41437   
     axis -90 7.62852e-016 20   XYZ
    dof rx rz
    limits (-45.0 90.0)
           (-70.0 20.0)
  end
  begin
     id 5 
     name ltoes
     direction 1.53526e-011 -4.21768e-011 1   
     length 1.2048   
     axis -90 7.62852e-016 20   XYZ
    dof rx
    limits (-90.0 20.0)
  end
  begin
     id 6 
     name rhipjoint
     direction -0.46599 -0.814191 0.346332   
     length 2.35339  
     axis 0 0 0  XYZ 
  end
  begin
     id 7 
     name rfemur
     direction -0.34202 -0.939693 0   
     length 7.34966   
     axis 0 0 -20   XYZ
    dof rx ry rz
    limits (-160.0 20.0)
           (-70.0 70.0)
           (-70.0 60.0)
  end
  begin
     id 8 
     name rtibia
     direction -0.34202 -0.939693 0   
     length 7.89934   
     axis 0 0 -20   XYZ
    dof rx
    limits (-10.0 170.0)
 end
 begin
     id 9 
     name rfoot
     direction -0.0975468 -0.268008 0.958466   
     length 2.27725  
     axis -90 -7.62852e-016 -20   XYZ
    dof rx rz
    limits (-45.0 90.0)
           (-20.0 70.0)
  end
  begin
     id 10 
     name rtoes
     direction -1.53563e-011 -4.22022e-011 1   
     length 1.13683   
     axis -90 -7.62852e-016 -20   XYZ
    dof rx
    limits (-90.0 20.0)
  end
  begin
     id 11 
     name lowerback
     direction -0.00456414 0.999242 -0.0386661   
     length 2.16968   
     axis 0 0 0   XYZ
    dof rx ry rz
    limits (-20.0 45.0)
           (-30.0 30.0)
           (-30.0 30.0)
  end
  begin
     id 12 
     name upperback
     direction 0.0297078 0.998988 0.0337799   
     length 2.15674   
     axis 0 0 0   XYZ
    dof rx ry rz
    limits (-20.0 45.0)
           (-30.0 30.0)
           (-30.0 30.0)
  end
  begin
     id 13 
     name thorax
     direction 0.0309305 0.998202 0.0513506   
     length 2.16319   
     axis 0 0 0   XYZ
    dof rx ry rz
    limits (-20.0 45.0)
           (-30.0 30.0)
           (-30.0 30.0)
  end
  begin
     id 14 
     name lowerneck
     direction -0.103039 0.983474 0.148872   
     length 1.64318   
     axis 0 0 0   XYZ
    dof rx ry rz
    limits (-20.0 45.0)
           (-30.0 30.0)
           (-30.0 30.0)
  end
  begin
     id 15 
     name upperneck
     direction 0.128124 0.971079 -0.201469   
     length 1.68242   
     axis 0 0 0   XYZ
    dof rx ry rz
    limits (-20.0 45.0)
           (-30.0 30.0)
           (-30.0 30.0)
  end
  begin
     id 16
     name head
     direction 0.0496365 0.994919 -0.0875941  
     length 1.70108  
     axis 0 0 0   XYZ
    dof rx ry rz
    limits (-20.0 45.0)
           (-30.0 30.0)
           (-30.0 30.0)
  end
  begin
     id 17 
     name lclavicle
     direction 0.887148 0.430222 -0.166967  
     length 3.25763  
     axis 0 0 0   XYZ
    dof ry rz
    limits (-20.0 10.0)
           (0.0 20.0)
  end
  begin
     id 18 
     name lhumerus
     direction 1 -4.48962e-011 1.92156e-027   
     length 5.10755   
     axis 180 -30 -90   XYZ
    dof rx ry rz
    limits (-60.0 90.0)
           (-90.0 90.0)
           (-90.0 90.0)
  end
  begin
     id 19
     name lradius
     direction 1 -4.48958e-011 7.10963e-027   
     length 3.36253   
     axis 180 -30 -90   XYZ
    dof rx
    limits (-10.0 170.0)
  end
  begin
     id 20
     name lwrist
     direction 1 -4.48946e-011 1.82396e-026   
     length 1.68127   
     axis -1.15222e-014 90 90   XYZ
    dof ry
    limits (-180.0 0.0)
 end
  begin
     id 21 
     name lhand
     direction 1 -4.48919e-011 3.64759e-026   
     length 0.619088   
     axis -2.32787e-014 90 90   XYZ
    dof rx rz
    limits (-90.0 90.0)
           (-45.0 45.0)
  end
  begin
     id 22 
     name lfingers
     direction 1 -4.49012e-011 7.29744e-026   
     length 0.499125   
     axis -4.6558e-014 90 90   XYZ
    dof rx
    limits (0.0 90.0)
  end
  begin
     id 23
     name lthumb
     direction 0.707107 -6.35028e-011 0.707107   
     length 0.716646   
     axis -90 45 3.78391e-014   XYZ
    dof rx rz
    limits (-45.0 45.0)
           (-45.0 45.0)
  end
  begin
     id 24 
     name rclavicle
     direction -0.82886 0.533198 -0.169384   
     length 3.20647  
     axis 0 0 0   XYZ 
    dof ry rz
    limits (-10.0 20.0)
           (-20.0 0.0)
  end
  begin
     id 25 
     name rhumerus
     direction -1 -4.48973e-011 3.06863e-027  
     length 5.27387   
     axis 180 30 90   XYZ
    dof rx ry rz
    limits (-90.0 60.0)
           (-90.0 90.0)
           (-90.0 90.0)
  end
  begin
     id 26 
     name rradius
     direction -1 -4.48988e-011 9.4797e-027   
     length 3.40144   
     axis 180 30 90   XYZ
    dof rx
    limits (-10.0 170.0)
  end
  begin
     id 27 
     name rwrist
     direction -1 -4.48897e-011 1.82366e-026   
     length 1.70072   
     axis -1.15222e-014 -90 -90   XYZ
    dof ry
    limits (-180.0 0.0)
  end
  begin
     id 28
     name rhand
     direction -1 -4.48965e-011 3.64815e-026   
     length 0.742821   
     axis -2.32787e-014 -90 -90   XYZ
    dof rx rz
    limits (-90.0 90.0)
           (-45.0 45.0)
  end
  begin
     id 29
     name rfingers
     direction -1 -4.49016e-011 7.29754e-026   
     length 0.598881   
     axis -4.6558e-014 -90 -90   XYZ
    dof rx
    limits (0.0 90.0)
  end
  begin
     id 30
     name rthumb
     direction -0.707107 -6.3488e-011 0.707107   
     length 0.859877   
     axis -90 -45 -3.78391e-014   XYZ
    dof rx rz
    limits (-45.0 45.0)
           (-45.0 45.0)
  end
:hierarchy
  begin
    root lhipjoint rhipjoint lowerback
    lhipjoint lfemur
    lfemur ltibia
    ltibia lfoot
    lfoot ltoes
    rhipjoint rfemur
    rfemur rtibia
    rtibia rfoot
    rfoot rtoes
    lowerback upperback
    upperback thorax
    thorax lowerneck lclavicle rclavicle
    lowerneck upperneck
    upperneck head
    lclavicle lhumerus
    lhumerus lradius
    lradius lwrist
    lwrist lhand lthumb
    lhand lfingers
    rclavicle rhumerus
    rhumerus rradius
    rradius rwrist
    rwrist rhand rthumb
    rhand rfingers
  end

#!OML:ASF F:\Work\Patient Classification 1\justin\Session 1\justin.ASF
:FULLY-SPECIFIED
:DEGREES
1239
root 0.866896 18.3453 -4.78376 -0.287616 -3.47196 -3.61568
lowerback 7.11336 -0.896923 0.294498
upperback -1.62075 -0.916991 4.71249
thorax -5.62015 -0.3796 4.88365
lowerneck -15.1705 -6.58248 -16.1713
upperneck 22.9533 -8.44209 12.8889
head 11.2096 -3.86137 6.23546
rclavicle -9.11925e-015 2.62396e-014
rhumerus -38.6554 -0.644817 -76.1898
rradius 55.7149
rwrist -8.47898
rhand -28.2269 10.4607
rfingers 7.12502
rthumb -1.60507 -19.513
lclavicle -9.11925e-015 2.62396e-014
lhumerus -30.8884 -7.09808 99.9435
lradius 49.7931
lwrist 17.5515
lhand -7.76795 37.8096
lfingers 7.12502
lthumb 18.1321 66.9844
rfemur -2.35096 1.91168 22.2435
rtibia 18.6881
rfoot -11.7673 -3.55693
rtoes -14.2627
lfemur 1.05716 2.8523 -16.706
ltibia 16.5332
lfoot -12.3745 1.56058
ltoes -15.9899
1240
root 0.87184 18.3481 -4.79578 -0.159092 -3.82038 -3.61962
lowerback 7.05319 -0.986655 0.373026
upperback -1.56301 -1.03326 4.73735
thorax -5.51649 -0.441646 4.87503
lowerneck -15.0457 -6.67837 -16.2456
upperneck 23.1033 -8.66733 13.1353
head 11.2969 -3.95102 6.31621
rclavicle 6.63444e-015 -3.02153e-014
rhumerus -37.8091 -0.616467 -75.8087
rradius 55.9378
rwrist -8.32148
rhand -28.027 11.7686
rfingers 7.12502
rthumb -1.41204 -18.2065
lclavicle 6.63444e-015 -3.02153e-014
lhumerus -30.1808 -8.21655 100.443
lradius 49.968
lwrist 17.9376
lhand -8.1425 35.9463
lfingers 7.12502
lthumb 17.7717 65.1542
rfemur -2.59133 2.18025 22.2409
rtibia 18.764
rfoot -11.7212 -3.4877
rtoes -14.5839
lfemur 0.910345 3.18113 -16.7053
ltibia 16.4836
lfoot -12.3114 1.57208
ltoes -16.499
1241
root 0.878752 18.3486 -4.81282 -0.0717275 -4.01524 -3.38297
lowerback 7.04063 -1.14991 0.170534
upperback -1.47564 -1.27421 4.74666
thorax -5.39329 -0.557217 5.02444
lowerneck -14.8803 -6.81554 -16.2292
upperneck 23.0895 -8.89626 13.124
head 11.2985 -4.06136 6.27232
rclavicle -1.12546e-014 1.19271e-014
rhumerus -36.8122 -0.471841 -75.4487
rradius 56.419
rwrist -8.63354
rhand -28.0864 11.8011
rfingers 7.12502
rthumb -1.46933 -18.1736
lclavicle -1.12546e-014 1.19271e-014
lhumerus -29.2836 -9.16745 100.921
lradius 50.091
lwrist 17.9063
lhand -8.38704 35.575
lfingers 7.12502
lthumb 17.5364 64.8041
rfemur -2.82568 2.19334 21.9424
rtibia 18.8694
rfoot -11.7014 -3.33349
rtoes -14.7628
lfemur 0.817572 3.44787 -16.9732
ltibia 16.3845
lfoot -12.2378 1.48833
ltoes -16.2754
1242
root 0.888424 18.3518 -4.83328 0.0666608 -4.34645 -3.11973
lowerback 6.99793 -1.30205 -0.0709611
upperback -1.37966 -1.50342 4.78432
thorax -5.24167 -0.666466 5.22287
lowerneck -14.7498 -6.93235 -16.2085
upperneck 23.1131 -9.0661 13.0089
head 11.3047 -4.15455 6.19764
rclavicle 2.62955e-014 -3.10104e-014
rhumerus -35.662 -0.314687 -75.0727
rradius 56.9072
rwrist -8.96333
rhand -28.77 10.6091
rfingers 7.12502
rthumb -2.12954 -19.36
lclavicle 2.62955e-014 -3.10104e-014
lhumerus -28.3267 -9.72607 101.279
lradius 50.3204
lwrist 17.7069
lhand -8.19643 36.1137
lfingers 7.12502
lthumb 17.7198 65.3263
rfemur -3.18306 2.29077 21.6052
rtibia 19.019
rfoot -11.676 -3.13639
rtoes -14.6919
lfemur 0.70903 3.62068 -17.3114
ltibia 16.2361
lfoot -12.132 1.63267
ltoes -15.9862
1243
root 0.897623 18.3584 -4.85002 0.244852 -4.80191 -2.99871
lowerback 6.94646 -1.39627 -0.0948211
upperback -1.27681 -1.63665 4.80296
thorax -5.09127 -0.735608 5.26511
lowerneck -14.9605 -7.02316 -16.2149
upperneck 23.4282 -9.23146 13.1301
head 11.5021 -4.21322 6.22893
rclavicle 3.2228e-014 6.36111e-015
rhumerus -34.5907 -0.237448 -74.7314
rradius 57.3275
rwrist -8.93929
rhand -29.72 9.73247
rfingers 7.12502
rthumb -3.04703 -20.2255
lclavicle 3.2228e-014 6.36111e-015
lhumerus -27.189 -10.4065 101.503
lradius 50.3852
lwrist 17.6958
lhand -8.26556 35.5458
lfingers 7.12502
lthumb 17.6533 64.7644
rfemur -3.59223 2.56281 21.4344
rtibia 19.1848
rfoot -11.5839 -2.98285
rtoes -14.7014
lfemur 0.599789 3.868 -17.4929
ltibia 16.0242
lfoot -12.0122 1.80968
ltoes -15.837
1244
root 0.905241 18.3641 -4.87078 0.41551 -5.07309 -2.89216
lowerback 7.09862 -1.54714 -0.072792
upperback -1.26509 -1.83354 4.79749
thorax -5.14827 -0.833354 5.27433
lowerneck -15.1435 -7.10587 -16.197
upperneck 23.6696 -9.39352 13.2626
head 11.6664 -4.26702 6.25862
rclavicle -2.67738e-014 1.35174e-014
rhumerus -33.6037 -0.128019 -74.4694
rradius 57.7749
rwrist -8.97193
rhand -30.2895 9.43671
rfingers 7.12502
rthumb -3.59705 -20.5127
lclavicle -2.67738e-014 1.35174e-014
lhumerus -26.136 -11.1695 101.657
lradius 50.5476
lwrist 17.8132
lhand -9.0769 33.4836
lfingers 7.12502
lthumb 16.8724 62.7706
rfemur -3.95 2.46124 21.2491
rtibia 19.2837
rfoot -11.4306 -2.6478
rtoes -14.6976
lfemur 0.421747 4.10415 -17.6416
ltibia 15.8609
lfoot -11.8853 1.81649
ltoes -15.5273
1245
root 0.914956 18.3665 -4.89326 0.560161 -5.25192 -2.88665
lowerback 7.34099 -1.78734 0.0560171
upperback -1.33085 -2.13077 4.86704
thorax -5.33037 -0.979843 5.32226
lowerneck -14.9452 -7.10411 -16.2889
upperneck 23.7097 -9.40831 13.2688
head 11.65 -4.2904 6.27894
rclavicle -2.06488e-014 3.97569e-015
rhumerus -32.547 0.194666 -74.194
rradius 58.0301
rwrist -9.2385
rhand -30.6683 9.57606
rfingers 7.12502
rthumb -3.96279 -20.3668
lclavicle -2.06488e-014 3.97569e-015
lhumerus -25.4523 -11.3673 101.792
lradius 51.1906
lwrist 17.8294
lhand -7.29715 37.368
lfingers 7.12502
lthumb 18.585 66.5002
rfemur -4.21557 2.21588 21.1623
rtibia 19.3141
rfoot -11.3218 -2.24062
rtoes -14.5549
lfemur 0.219797 4.224 -17.69
ltibia 15.7915
lfoot -11.8177 1.77736
ltoes -15.4767
1246
root 0.929275 18.3706 -4.91055 0.679562 -5.64248 -2.94048
lowerback 7.44488 -1.99676 0.262979
upperback -1.36032 -2.38244 4.97233
thorax -5.40206 -1.10814 5.35203
lowerneck -14.5984 -7.052 -16.537
upperneck 23.7793 -9.35673 13.3457
head 11.6158 -4.2967 6.36938
rclavicle 4.04278e-014 -1.66979e-014
rhumerus -31.3966 0.609496 -73.8815
rradius 58.1126
rwrist -9.52672
rhand -30.9211 9.83961
rfingers 7.12502
rthumb -4.20691 -20.0986
lclavicle 4.04278e-014 -1.66979e-014
lhumerus -24.8773 -11.2187 101.89
lradius 51.8729
lwrist 17.7506
lhand -5.99095 40.0297
lfingers 7.12502
lthumb 19.8411 69.0369
rfemur -4.46251 2.29832 21.15
rtibia 19.3509
rfoot -11.2004 -1.95745
rtoes -14.8314
lfemur 0.114982 4.40535 -17.7012
ltibia 15.7263
lfoot -11.8485 1.83224
ltoes -15.628
1247
root 0.939388 18.3753 -4.92919 0.812397 -6.17555 -2.95818
lowerback 7.43634 -2.11718 0.372882
upperback -1.24909 -2.53509 5.04646
thorax -5.26828 -1.19 5.38037
lowerneck -14.5854 -7.22155 -16.6683
upperneck 23.8255 -9.56098 13.2819
head 11.6734 -4.40952 6.33342
rclavicle 1.05356e-014 -4.13472e-014
rhumerus -30.0366 0.703453 -73.5916
rradius 58.1819
rwrist -9.6119
rhand -30.9204 9.95108
rfingers 7.12502
rthumb -4.20625 -19.9871
lclavicle 1.05356e-014 -4.13472e-014
lhumerus -23.9692 -11.3779 101.885
lradius 52.3446
lwrist 17.8811
lhand -4.9589 41.3145
lfingers 7.12502
lthumb 20.8329 70.216
rfemur -4.77316 2.49387 21.1238
rtibia 19.4125
rfoot -11.0444 -1.67422
rtoes -14.9941
lfemur 0.00431909 4.7627 -17.7211
ltibia 15.6789
lfoot -11.8504 1.88845
ltoes -15.5891
1248
root 0.945691 18.378 -4.952 0.942919 -6.721 -2.81261
lowerback 7.48642 -2.20879 0.262878
upperback -1.13568 -2.67079 5.06919
thorax -5.15942 -1.25717 5.48001
lowerneck -14.4543 -7.43951 -16.7558
upperneck 23.638 -9.82937 13.1753
head 11.6248 -4.55343 6.25328
rclavicle -1.3418e-014 4.6118e-014
rhumerus -28.6981 0.690092 -73.3544
rradius 58.3453
rwrist -9.62523
rhand -31.016 9.89655
rfingers 7.12502
rthumb -4.29859 -20.0398
lclavicle -1.3418e-014 4.6118e-014
lhumerus -22.988 -11.9461 101.895
lradius 52.6531
lwrist 17.9191
lhand -4.92918 40.6665
lfingers 7.12502
lthumb 20.8615 69.5648
rfemur -5.12927 2.67937 20.9254
rtibia 19.534
rfoot -10.9675 -1.34178
rtoes -14.6611
lfemur -0.186589 5.22686 -17.8941
ltibia 15.69
lfoot -11.8414 1.9072
ltoes -15.7799
1249
root 0.957437 18.3827 -4.98293 1.14703 -7.01295 -2.53698
lowerback 7.56496 -2.41011 0.0539796
upperback -1.19168 -2.95639 5.05806
thorax -5.22691 -1.39119 5.62639
lowerneck -13.8944 -7.34701 -16.7012
upperneck 23.4893 -9.7874 13.1573
head 11.443 -4.55267 6.24769
rclavicle 8.99501e-015 4.77083e-014
rhumerus -27.6182 0.914273 -73.1731
rradius 58.6304
rwrist -9.7223
rhand -31.2475 9.89172
rfingers 7.12502
rthumb -4.52216 -20.04
lclavicle 8.99501e-015 4.77083e-014
lhumerus -22.3798 -12.5937 101.997
lradius 52.923
lwrist 17.5043
lhand -6.05418 38.5504
lfingers 7.12502
lthumb 19.7803 67.5639
rfemur -5.60783 2.63178 20.5402
rtibia 19.6823
rfoot -10.8675 -1.01675
rtoes -14.9088
lfemur -0.468044 5.34741 -18.2756
ltibia 15.5813
lfoot -11.7377 2.05187
ltoes -16.0566
